<svg xmlns="http://www.w3.org/2000/svg" viewBox="0 0 56.73 53"><defs><style>.cls-1{fill:#fa0000;}</style></defs><title>business email</title><g id="Layer_2" data-name="Layer 2"><g id="Layer_1-2" data-name="Layer 1"><path class="cls-1" d="M56.68,20a.93.93,0,0,0,0-.29,1.52,1.52,0,0,0-.57-.81l-8.12-5.64v-6a1.45,1.45,0,0,0-1.45-1.45H37.14L29.2.26a1.44,1.44,0,0,0-1.66,0l-8,5.53h-9.3A1.45,1.45,0,0,0,8.79,7.24v6L.63,18.86A1.47,1.47,0,0,0,0,20v0L0,51.55a1.5,1.5,0,0,0,.43,1,1.45,1.45,0,0,0,1,.42h0l53.78-.07a1.47,1.47,0,0,0,1.45-1.46Zm-8.74-3.2,4.64,3.22-4.64,3.23ZM28.36,3.22l3.7,2.57H24.65ZM11.69,8.69H45V25.3L33.84,33.08l-4.56-3.54h0a1.47,1.47,0,0,0-1.77,0L22.9,33.11,11.69,25.37Zm-2.9,8.06v6.61L4,20.05ZM2.91,22.83,20.49,35,2.94,48.59ZM5.75,50.09,28.38,32.53,50.94,50ZM36.25,35,53.78,22.76l0,25.82Z"/></g></g></svg>