<svg xmlns="http://www.w3.org/2000/svg" viewBox="0 0 64.01 52.84"><defs><style>.cls-1{fill:#fa0000;}</style></defs><title>custom domain</title><g id="Layer_2" data-name="Layer 2"><g id="Layer_1-2" data-name="Layer 1"><path class="cls-1" d="M55.63,14.68a26.38,26.38,0,0,0-47.29,0,1.39,1.39,0,0,0,2.49,1.24,23.6,23.6,0,0,1,42.31,0,1.39,1.39,0,0,0,2.49-1.24Z"/><path class="cls-1" d="M55,36.3a1.39,1.39,0,0,0-1.86.63,23.61,23.61,0,0,1-42.31,0,1.39,1.39,0,1,0-2.49,1.24,26.39,26.39,0,0,0,47.29,0A1.39,1.39,0,0,0,55,36.3Z"/><path class="cls-1" d="M57.05,13.93H7a7,7,0,0,0-7,7V32a7,7,0,0,0,7,7H57.05a7,7,0,0,0,7-7V20.88A7,7,0,0,0,57.05,13.93ZM57,36.09H6.91a4.17,4.17,0,0,1-4.17-4.17V20.83a4.17,4.17,0,0,1,4.17-4.17H57a4.17,4.17,0,0,1,4.17,4.17V31.92A4.17,4.17,0,0,1,57,36.09Z"/><path class="cls-1" d="M37,20.59a1.16,1.16,0,0,0-1.42.85l-1.37,5.48L33.1,23.7a1.23,1.23,0,0,0-2.23,0L29.8,26.92l-1.37-5.48a1.18,1.18,0,0,0-2.28.57L28.5,31.4a1.16,1.16,0,0,0,1.09.89,1.11,1.11,0,0,0,1.16-.8L32,27.79l1.24,3.7a1.17,1.17,0,0,0,1.11.8h0a1.18,1.18,0,0,0,1.1-.89L37.82,22A1.18,1.18,0,0,0,37,20.59Z"/><path class="cls-1" d="M21.17,20.59a1.17,1.17,0,0,0-1.43.85l-1.37,5.48L17.3,23.7a1.23,1.23,0,0,0-2.23,0L14,26.92l-1.37-5.48a1.18,1.18,0,0,0-2.28.57L12.7,31.4a1.17,1.17,0,0,0,1.09.89,1.09,1.09,0,0,0,1.16-.8l1.24-3.7,1.23,3.7a1.17,1.17,0,0,0,1.11.8h0a1.16,1.16,0,0,0,1.09-.89L22,22A1.17,1.17,0,0,0,21.17,20.59Z"/><path class="cls-1" d="M52.76,20.59a1.16,1.16,0,0,0-1.42.85L50,26.92,48.89,23.7a1.22,1.22,0,0,0-2.22,0l-1.08,3.22-1.36-5.48a1.18,1.18,0,0,0-1.43-.85A1.17,1.17,0,0,0,42,22L44.3,31.4a1.16,1.16,0,0,0,1.09.89,1.12,1.12,0,0,0,1.16-.8l1.23-3.7L49,31.49a1.18,1.18,0,0,0,1.12.8h0a1.18,1.18,0,0,0,1.1-.89L53.61,22A1.17,1.17,0,0,0,52.76,20.59Z"/></g></g></svg>