<svg xmlns="http://www.w3.org/2000/svg" viewBox="0 0 36.79 59.05"><defs><style>.cls-1{fill:#fa0000;}</style></defs><title>powerful mobile app</title><g id="Layer_2" data-name="Layer 2"><g id="Layer_1-2" data-name="Layer 1"><path class="cls-1" d="M31.68,0H5.1A5.1,5.1,0,0,0,0,5.1V54a5.1,5.1,0,0,0,5.1,5.1H31.69a5.1,5.1,0,0,0,5.1-5.1V5.1A5.11,5.11,0,0,0,31.68,0Zm0,56.75H5.1A2.8,2.8,0,0,1,2.31,54V51H34.49v3h0A2.78,2.78,0,0,1,31.72,56.75Zm2.77-8.08H2.31V10.5H34.49Zm0-40.48H2.31v-3A2.79,2.79,0,0,1,5.1,2.42H31.69a2.8,2.8,0,0,1,2.8,2.8v3Z"/><path class="cls-1" d="M26.63,5a1.42,1.42,0,0,0-.07-.22,1.24,1.24,0,0,0-.1-.2c-.05-.06-.09-.12-.15-.18l-.17-.14a.75.75,0,0,0-.2-.1.81.81,0,0,0-.22-.07,1.14,1.14,0,0,0-.45,0,.86.86,0,0,0-.21.07.75.75,0,0,0-.2.1,1.24,1.24,0,0,0-.18.14l-.14.18a1.28,1.28,0,0,0-.11.2.79.79,0,0,0-.06.22.82.82,0,0,0,0,.44.79.79,0,0,0,.06.22,1.28,1.28,0,0,0,.11.2l.14.18a1.24,1.24,0,0,0,.18.14.75.75,0,0,0,.2.1.86.86,0,0,0,.21.07.9.9,0,0,0,.23,0,.82.82,0,0,0,.22,0,.81.81,0,0,0,.22-.07.75.75,0,0,0,.2-.1l.17-.14c.06-.06.1-.12.15-.18a1.24,1.24,0,0,0,.1-.2,1.42,1.42,0,0,0,.07-.22,1.64,1.64,0,0,0,0-.22A1.64,1.64,0,0,0,26.63,5Z"/><path class="cls-1" d="M21.12,4.15H11.44a1.17,1.17,0,0,0-1.17,1,1.15,1.15,0,0,0,1.14,1.33h9.67a1.18,1.18,0,0,0,1.18-1A1.16,1.16,0,0,0,21.12,4.15Z"/><path class="cls-1" d="M20,52.71H17a1.18,1.18,0,0,0-1.18,1A1.16,1.16,0,0,0,16.93,55h3a1.17,1.17,0,0,0,1.17-1A1.14,1.14,0,0,0,20,52.71Z"/></g></g></svg>