<svg xmlns="http://www.w3.org/2000/svg" viewBox="0 0 64.98 44.11"><defs><style>.cls-1{fill:#fa0000;}</style></defs><title>product catalog</title><g id="Layer_2" data-name="Layer 2"><g id="Layer_1-2" data-name="Layer 1"><polygon class="cls-1" points="64.98 44.11 35.73 44.11 35.73 38.28 37.91 38.28 37.91 41.92 62.79 41.92 62.79 9.84 47.12 9.84 47.12 7.66 64.98 7.66 64.98 44.11"/><polygon class="cls-1" points="29.25 44.11 0 44.11 0 7.66 17.86 7.66 17.86 9.84 2.19 9.84 2.19 41.92 27.07 41.92 27.07 38.28 29.25 38.28 29.25 44.11"/><path class="cls-1" d="M48.21,39.37H16.5V0H48.21ZM18.68,37.18H46v-35H18.68Z"/><path class="cls-1" d="M39.46,26.05H25.61V12.2H39.46ZM27.8,23.86h9.48V14.38H27.8Z"/></g></g></svg>