<svg xmlns="http://www.w3.org/2000/svg" viewBox="0 0 65 64.69"><defs><style>.cls-1{fill:#fa0000;stroke:#fa0000;stroke-miterlimit:10;}</style></defs><title>automatic seo</title><g id="Layer_2" data-name="Layer 2"><g id="Layer_1-2" data-name="Layer 1"><path class="cls-1" d="M15.24,44.4a20.89,20.89,0,0,0,28.42,2.8l1.6,1.6a1.81,1.81,0,0,0,.47,1.75L57.28,62.11a1.78,1.78,0,0,0,1.75.46l.82.82a2.72,2.72,0,0,0,3.85,0l-.64-.64.64.64a2.72,2.72,0,0,0,0-3.85l-.82-.82A1.82,1.82,0,0,0,62.42,57L50.86,45.41A1.82,1.82,0,0,0,49.11,45l-1.6-1.6a20.88,20.88,0,1,0-32.27,1Zm45.3,17.06,1.29-1.28.64.64a.91.91,0,0,1,.27.64.93.93,0,0,1-.27.65h0a.93.93,0,0,1-1.28,0Zm-11-9.63,2.57-2.57,9,9h0l-1.28,1.29-1.28,1.28ZM47,49.27,48.29,48l1.29-1.28h0L50.86,48l-2.57,2.57Zm-2-3.25c.22-.2.46-.39.67-.61s.41-.45.61-.67l1.32,1.32L47,46.7l-.64.64ZM11.89,30.65A19.07,19.07,0,1,1,23.66,48.26,19.07,19.07,0,0,1,11.89,30.65Z"/><path class="cls-1" d="M29.59,57.55V60a1.27,1.27,0,0,0,1.23,1.29A1.25,1.25,0,0,0,32.09,60V57.51a1.25,1.25,0,0,0-1.27-1.25A1.27,1.27,0,0,0,29.59,57.55Z"/><path class="cls-1" d="M32.09,4.2V1.79A1.27,1.27,0,0,0,30.86.5a1.25,1.25,0,0,0-1.27,1.25V4.24a1.25,1.25,0,0,0,1.27,1.25A1.27,1.27,0,0,0,32.09,4.2Z"/><path class="cls-1" d="M4.24,29.58H1.79A1.27,1.27,0,0,0,.5,30.81a1.25,1.25,0,0,0,1.25,1.27H4.2a1.27,1.27,0,0,0,1.29-1.23A1.25,1.25,0,0,0,4.24,29.58Z"/><path class="cls-1" d="M60,29.58H57.55a1.27,1.27,0,0,0-1.29,1.23,1.25,1.25,0,0,0,1.25,1.27H60a1.27,1.27,0,0,0,1.29-1.23A1.25,1.25,0,0,0,60,29.58Z"/><path class="cls-1" d="M11.16,48.8,9.37,50.59a1.27,1.27,0,0,0,1.79,1.79L13,50.59a1.27,1.27,0,1,0-1.79-1.79Z"/><path class="cls-1" d="M50.59,9.37,48.8,11.16a1.26,1.26,0,0,0,0,1.79,1.23,1.23,0,0,0,.89.37,1.26,1.26,0,0,0,.9-.37l1.79-1.79a1.27,1.27,0,0,0-1.79-1.79Z"/><path class="cls-1" d="M11.16,13A1.27,1.27,0,0,0,13,11.16L11.16,9.37a1.27,1.27,0,0,0-1.79,1.79Z"/></g></g></svg>