<svg xmlns="http://www.w3.org/2000/svg" viewBox="0 0 56.55 60.34"><defs><style>.cls-1{fill:#fa0000;}</style></defs><title>social media marketing</title><g id="Layer_2" data-name="Layer 2"><g id="Layer_1-2" data-name="Layer 1"><path class="cls-1" d="M46,39.23a10.47,10.47,0,0,0-8.63,4.48l-16.3-9.89a10.6,10.6,0,0,0,.67-3.7,10.73,10.73,0,0,0-.66-3.69l16.29-9.81A10.61,10.61,0,1,0,36,13.92L19.66,23.76a10.87,10.87,0,1,0,0,12.73L36,46.41a10.56,10.56,0,1,0,10-7.18ZM46,3a7.54,7.54,0,1,1-7.54,7.54A7.55,7.55,0,0,1,46,3ZM10.86,38a7.85,7.85,0,1,1,7.85-7.84A7.85,7.85,0,0,1,10.86,38ZM51.32,55.12a7.54,7.54,0,0,1-12.87-5.34,7.54,7.54,0,1,1,12.87,5.34Z"/></g></g></svg>