<svg xmlns="http://www.w3.org/2000/svg" viewBox="0 0 142.79 43.12"><defs><style>.cls-1{fill:#fa0000;}.cls-2{fill:#adadad;}.cls-3{fill:#fff;}.cls-4{fill:#333;}.cls-5{fill:#e5e5e5;}.cls-6{fill:#232323;}.cls-7{fill:#becbc8;}.cls-8{fill:#899095;}</style></defs><title>Logo</title><g id="Layer_2" data-name="Layer 2"><g id="Layer_1-2" data-name="Layer 1"><path d="M0,12.72H8.73a7.52,7.52,0,0,1,5.56,1.93A5.87,5.87,0,0,1,15.93,19v.05a6,6,0,0,1-1.13,3.78,6.56,6.56,0,0,1-3,2.14l4.66,6.82H11.59L7.5,25.7H4.2v6.11H0ZM8.46,22a3.48,3.48,0,0,0,2.38-.74,2.51,2.51,0,0,0,.84-2v-.05a2.47,2.47,0,0,0-.88-2.06,3.88,3.88,0,0,0-2.43-.68H4.2V22Z"/><path d="M25.27,32.14a8.17,8.17,0,0,1-3-.55A7,7,0,0,1,19.8,30a7.21,7.21,0,0,1-1.6-2.4,8,8,0,0,1-.57-3.06v0a8.3,8.3,0,0,1,.53-3,7.5,7.5,0,0,1,1.49-2.43,6.88,6.88,0,0,1,2.29-1.63,7,7,0,0,1,2.92-.6,7,7,0,0,1,3.16.65,6.56,6.56,0,0,1,2.23,1.76,7.48,7.48,0,0,1,1.31,2.54,10.54,10.54,0,0,1,.42,3c0,.16,0,.33,0,.51s0,.38,0,.58H21.75A3.49,3.49,0,0,0,23,28.09a3.72,3.72,0,0,0,2.33.72,4.78,4.78,0,0,0,1.86-.35,6.42,6.42,0,0,0,1.69-1.15l2.37,2.1a7.42,7.42,0,0,1-2.51,2A7.8,7.8,0,0,1,25.27,32.14Zm2.67-8.79a4.08,4.08,0,0,0-1-2.25,2.74,2.74,0,0,0-2.1-.86,2.82,2.82,0,0,0-2.12.85,4.33,4.33,0,0,0-1,2.26Z"/><path d="M41,32.08a6.41,6.41,0,0,1-2.48-.49,6,6,0,0,1-2.13-1.46,7.1,7.1,0,0,1-1.49-2.37,8.74,8.74,0,0,1-.56-3.23v-.06a8.74,8.74,0,0,1,.56-3.23,7.22,7.22,0,0,1,1.47-2.37,5.89,5.89,0,0,1,2.12-1.46A6.53,6.53,0,0,1,41,16.92a5.17,5.17,0,0,1,2.74.65,7.37,7.37,0,0,1,1.81,1.53v-8h4.15V31.81H45.51v-2.1a6.66,6.66,0,0,1-1.84,1.71A5.11,5.11,0,0,1,41,32.08ZM42,28.56a3.26,3.26,0,0,0,2.5-1.1,4,4,0,0,0,.76-1.28,4.61,4.61,0,0,0,.29-1.65v-.06a4.61,4.61,0,0,0-.29-1.65,4,4,0,0,0-.76-1.28,3.44,3.44,0,0,0-3.88-.82,3.6,3.6,0,0,0-1.13.82,4,4,0,0,0-.77,1.27,4.35,4.35,0,0,0-.29,1.66v.06a4.4,4.4,0,0,0,.29,1.65,4,4,0,0,0,.77,1.28,3.6,3.6,0,0,0,1.13.82A3.37,3.37,0,0,0,42,28.56Z"/><path d="M99.82,15.81H94V11.94h15.82v3.87H104v16h-4.2Z"/><path d="M112.71,11.9h4.37v3.68h-4.37Zm.11,5.29H117V31.81h-4.15Z"/><path d="M120.48,17.19h4.14v2.07a9.26,9.26,0,0,1,.78-.88,4.84,4.84,0,0,1,.94-.75,4.37,4.37,0,0,1,1.16-.52,5.5,5.5,0,0,1,3.93.41,4,4,0,0,1,1.62,1.72,6.65,6.65,0,0,1,2.13-1.74,5.89,5.89,0,0,1,2.67-.58,4.78,4.78,0,0,1,3.63,1.36,5.55,5.55,0,0,1,1.31,4v9.52h-4.14V23.65a3.38,3.38,0,0,0-.63-2.22,2.22,2.22,0,0,0-1.8-.75,2.32,2.32,0,0,0-1.84.75,3.22,3.22,0,0,0-.67,2.22v8.16h-4.15V23.65a3.38,3.38,0,0,0-.63-2.22,2.22,2.22,0,0,0-1.8-.75,2.35,2.35,0,0,0-1.84.75,3.27,3.27,0,0,0-.67,2.22v8.16h-4.14Z"/><circle class="cls-1" cx="72.57" cy="20.27" r="19.7"/><path class="cls-2" d="M87.46,5.76a4.19,4.19,0,0,1,.33.26c.1.11.2.22.29.34l.09.11a.19.19,0,0,1,.12.07c0,.07.18,0,.22,0s.06-.17.06-.25a2.44,2.44,0,0,0-.07-.39,3.32,3.32,0,0,0-.33-.78A4.49,4.49,0,0,0,87,3.82a6.49,6.49,0,0,0-1.85-.95c-.36-.12-.72-.21-1.08-.3l-.43-.11a.92.92,0,0,1-.43-.18.07.07,0,0,1,0-.11,1.19,1.19,0,0,1,.62,0l.44.05c0-.09.08-.17.11-.25s-.16-.25-.2-.29a1,1,0,0,0-.32-.16,2.28,2.28,0,0,0-.57-.15,3.72,3.72,0,0,0-1.45.1A7.55,7.55,0,0,0,78,4.18a9.12,9.12,0,0,0-1.23,2.08,11.54,11.54,0,0,0-.45,1.37,4.36,4.36,0,0,1,.6.23.11.11,0,0,1-.05.21h-.66l-.47,0-1.1-.1c-.71-.05-1.42-.09-2.13-.11A20,20,0,0,0,69.15,8L68.63,8l-.57.13a6.06,6.06,0,0,0-1.39.57l-.13.08a5.56,5.56,0,0,0-.58.41,6.73,6.73,0,0,0-1.18,1.26,9.52,9.52,0,0,0-1,1.79c-.07.16-.14.32-.2.49s-.21.59-.3.89l-.12.4c-.11.42-.21.84-.29,1.25a9.13,9.13,0,0,0,.48,5.77,6.22,6.22,0,0,0,1.56,2,5,5,0,0,0,2.76,1.31,0,0,0,1,1,0,.09,4.65,4.65,0,0,1-1.34-.11,24.12,24.12,0,0,0-1.54,3,17.26,17.26,0,0,0-1.23,7.75,17.07,17.07,0,0,0,.77,3.94c.15.48.33.94.52,1.4a.9.9,0,0,1,.8.25,1.4,1.4,0,0,1,.3-.15,1,1,0,0,1,1.19.3l.15-.08a.19.19,0,0,1,.08-.1.7.7,0,0,1,.83.18,1.73,1.73,0,0,1,.44.91l0,.12.45-.08h0l.12-.33c.07-.21.13-.42.18-.64s0-.23.07-.35a.3.3,0,0,1,0-.1v0a6.45,6.45,0,0,1-2.68-1.18c-.07,0,0-.16.07-.12a8.4,8.4,0,0,0,3,.8,20.57,20.57,0,0,0,3.33,0c1-.06,2-.13,3-.26a5.44,5.44,0,0,0,2.79-1c.1-.08.21,0,.14.15a3.44,3.44,0,0,1-1.91,1.32c.05.14.09.3.13.43v0a1.08,1.08,0,0,1,.29-.13.93.93,0,0,1,.91.23,1.4,1.4,0,0,1,.3-.15,1,1,0,0,1,1.19.3l.15-.08a.19.19,0,0,1,.08-.1.7.7,0,0,1,.83.18,1.58,1.58,0,0,1,.4.74l.33-.05a.19.19,0,0,0,0-.07c.13-.51.25-1,.38-1.55a21.46,21.46,0,0,0,.66-5.53,16,16,0,0,0-1.09-5.34c0-.08.08-.1.12-.05a7.81,7.81,0,0,1,1.27,2.89A13.58,13.58,0,0,1,83.5,35l.07,0a1.42,1.42,0,0,0,.4.12c.07-.38.29-.76.65-.81a.46.46,0,0,1,.39-.07.62.62,0,0,1,.58-.37h.13a2.92,2.92,0,0,0,.15-.7,5.16,5.16,0,0,0-.25-1.83c-.16-.54-.34-1.07-.55-1.59a17.46,17.46,0,0,0-1.51-2.87,19.4,19.4,0,0,0-2-2.55c-.4-.42-.83-.81-1.26-1.19l-.11-.09c-.14.12-.29.23-.44.34a7.46,7.46,0,0,1-2.18,1.1,5.45,5.45,0,0,1-2.42.38s0-.05,0-.06c.75-.4,1.63-.49,2.39-.86a11.06,11.06,0,0,0,2-1.19,5.8,5.8,0,0,0,2.08-3.16,13.3,13.3,0,0,0,.13-4.13c0-.47-.1-.95-.18-1.42,0-.23-.09-.45-.14-.68a8.73,8.73,0,0,0-.7-2,6.75,6.75,0,0,0-2-2.34l-.41-.3a4.3,4.3,0,0,1,.09-.47,4.27,4.27,0,0,1,2.34-2.95,4.27,4.27,0,0,1,3.78.29,4.22,4.22,0,0,1,2,3.23,4.57,4.57,0,0,1-1.36,3.75,5.27,5.27,0,0,1-2.92,1.4,10.58,10.58,0,0,1,.15,1.13,5.72,5.72,0,0,0,5.9-3.7A6,6,0,0,0,88.47,9a6.42,6.42,0,0,0-.31-1.38,8.58,8.58,0,0,0-.39-1,3.59,3.59,0,0,0-.17-.34c-.07-.13-.12-.28-.19-.4S87.43,5.74,87.46,5.76ZM73.07,19.24a1.58,1.58,0,0,1-1,1.35,5.36,5.36,0,0,1-1.9.34,3.21,3.21,0,0,1-2-.52,2.14,2.14,0,0,1-.84-1.63,7,7,0,0,1,.2-2,2.81,2.81,0,0,1,1-1.65A1.61,1.61,0,0,1,70,14.8a2.5,2.5,0,0,1,1.77.28,2.56,2.56,0,0,1,1,1.81c.1.42.18.83.25,1.25A5.06,5.06,0,0,1,73.07,19.24Z"/><circle cx="76.19" cy="16.93" r="1.58"/><circle class="cls-3" cx="75.8" cy="16.54" r="0.54"/><circle cx="65.18" cy="16.93" r="1.58"/><circle class="cls-3" cx="64.78" cy="16.54" r="0.54"/><path class="cls-4" d="M60.81,34.44a.43.43,0,0,1,.41,0,1,1,0,0,0-.31.69,2.15,2.15,0,0,0,0,.56.46.46,0,0,1-.39-.13.59.59,0,0,1-.12-.54A.85.85,0,0,1,60.81,34.44Z"/><path class="cls-4" d="M61.94,34.71a1,1,0,0,1,.15.72c0,.15-.11.62-.36.55s-.27-.51-.27-.72a.63.63,0,0,1,.07-.36c.09-.12.24-.13.37-.17Z"/><path class="cls-2" d="M65.36,24l.49.2a13.51,13.51,0,0,0-1.47,2.59,17.28,17.28,0,0,0-1.49,8.23.91.91,0,0,1-.31.09c-.08-.38-.3-.76-.66-.81a.44.44,0,0,0-.38-.07A.65.65,0,0,0,61,33.9h-.12a2.92,2.92,0,0,1-.15-.7,5.16,5.16,0,0,1,.25-1.83,13,13,0,0,1,.55-1.59A16.73,16.73,0,0,1,63,26.92,17.89,17.89,0,0,1,65,24.37Z"/><path d="M63,2.15a5.59,5.59,0,0,0-3.86.38A4.5,4.5,0,0,0,57.85,3.6a3.43,3.43,0,0,0-.47.72,1,1,0,0,0-.13.47.46.46,0,0,0,.21.35,3.25,3.25,0,0,1,1-.94c.08,0,.21,0,.16.12a8.72,8.72,0,0,0-1.32,3.07,5.21,5.21,0,0,0,1.28,4.45,5.63,5.63,0,0,0,2,1.35,6.73,6.73,0,0,0,2,.44h.07c.08-.28.16-.56.26-.84a3,3,0,0,1-.76-.13A4.1,4.1,0,0,1,60,11.25a5.35,5.35,0,0,1-1-4.32A3.7,3.7,0,0,1,65.53,5.1a4.59,4.59,0,0,1,1,1.9,6.67,6.67,0,0,1,.17.93l.09,0A6.63,6.63,0,0,1,68,7.43a6.36,6.36,0,0,0-.16-2.21,6.26,6.26,0,0,0-2.5-3.56,6.34,6.34,0,0,0-2-.93,1.68,1.68,0,0,0-1.19,0,.62.62,0,0,0-.34.43.48.48,0,0,0,.25.44,3.29,3.29,0,0,1,1,.47S63,2.16,63,2.15ZM87.46,5.76a4.19,4.19,0,0,1,.33.26c.1.11.2.22.29.34l.09.11a.19.19,0,0,1,.12.07c0,.07.18,0,.22,0s.06-.17.06-.25a2.44,2.44,0,0,0-.07-.39,3.32,3.32,0,0,0-.33-.78A4.49,4.49,0,0,0,87,3.82a6.49,6.49,0,0,0-1.85-.95c-.36-.12-.72-.21-1.08-.3l-.43-.11a.92.92,0,0,1-.43-.18.07.07,0,0,1,0-.11,1.19,1.19,0,0,1,.62,0l.44.05c0-.09.08-.17.11-.25s-.16-.25-.2-.29a1,1,0,0,0-.32-.16,2.28,2.28,0,0,0-.57-.15,3.72,3.72,0,0,0-1.45.1A7.55,7.55,0,0,0,78,4.18a9.12,9.12,0,0,0-1.23,2.08,11.54,11.54,0,0,0-.45,1.37,4.92,4.92,0,0,1,.6.23.11.11,0,0,1-.05.21h-.66l-.47,0-1.1-.1c-.71-.05-1.42-.09-2.13-.11A20,20,0,0,0,69.15,8L68.63,8l-.57.13a6.06,6.06,0,0,0-1.39.57l-.13.08a5.56,5.56,0,0,0-.58.41,6.73,6.73,0,0,0-1.18,1.26,9.52,9.52,0,0,0-1,1.79c-.07.16-.14.32-.2.49s-.21.59-.3.89l-.12.4c-.11.42-.21.84-.29,1.25a9.2,9.2,0,0,0,.47,5.77,6.4,6.4,0,0,0,1.57,2,5,5,0,0,0,2.76,1.31,0,0,0,1,1,0,.09,4.65,4.65,0,0,1-1.34-.11,24.12,24.12,0,0,0-1.54,3,17.26,17.26,0,0,0-1.23,7.75,17.07,17.07,0,0,0,.77,3.94c.15.48.33.94.52,1.4a.9.9,0,0,1,.8.25,1.4,1.4,0,0,1,.3-.15,1,1,0,0,1,1.19.3l.15-.08a.19.19,0,0,1,.08-.1.7.7,0,0,1,.83.18,1.73,1.73,0,0,1,.44.91l0,.12.45-.08h0l.12-.33c.07-.21.13-.42.18-.64s0-.23.07-.35a.3.3,0,0,1,0-.1v0a6.29,6.29,0,0,1-2.68-1.19c-.07,0,0-.15.07-.11a8.4,8.4,0,0,0,3,.8,20.57,20.57,0,0,0,3.33,0c1-.06,2-.13,3-.26a5.4,5.4,0,0,0,2.79-1c.1-.08.21,0,.14.15a3.44,3.44,0,0,1-1.91,1.32c.05.14.09.3.13.43v0a1.08,1.08,0,0,1,.29-.13.93.93,0,0,1,.91.23,1.4,1.4,0,0,1,.3-.15,1,1,0,0,1,1.19.3l.15-.08a.19.19,0,0,1,.08-.1.7.7,0,0,1,.83.18,1.58,1.58,0,0,1,.4.74l.33-.05a.19.19,0,0,0,0-.07c.13-.51.25-1,.38-1.55a21.46,21.46,0,0,0,.66-5.53,16,16,0,0,0-1.09-5.34c0-.08.08-.1.12-.05a7.81,7.81,0,0,1,1.27,2.89A13.58,13.58,0,0,1,83.5,35l.07,0a1.42,1.42,0,0,0,.4.12.91.91,0,0,1,.66-.81.43.43,0,0,1,.38-.07.62.62,0,0,1,.58-.37h.13a2.92,2.92,0,0,0,.15-.7,5.16,5.16,0,0,0-.25-1.83c-.16-.54-.34-1.07-.55-1.59a17.46,17.46,0,0,0-1.51-2.87,19.4,19.4,0,0,0-2-2.55c-.4-.42-.83-.81-1.26-1.19l-.11-.09c-.14.12-.29.23-.44.34a7.46,7.46,0,0,1-2.18,1.1,5.45,5.45,0,0,1-2.42.38s0-.05,0-.06c.75-.4,1.63-.49,2.39-.86a11.06,11.06,0,0,0,2-1.19,5.8,5.8,0,0,0,2.08-3.16,13.3,13.3,0,0,0,.13-4.13c0-.47-.1-.95-.18-1.42,0-.23-.09-.45-.14-.68a8.73,8.73,0,0,0-.7-2,6.86,6.86,0,0,0-2-2.34l-.41-.3a4.3,4.3,0,0,1,.09-.47,4.27,4.27,0,0,1,2.34-2.95,4.27,4.27,0,0,1,3.78.29,4.22,4.22,0,0,1,2,3.23,4.61,4.61,0,0,1-1.36,3.75,5.27,5.27,0,0,1-2.92,1.4,10.58,10.58,0,0,1,.15,1.13,5.72,5.72,0,0,0,5.9-3.7A6,6,0,0,0,88.47,9a6.42,6.42,0,0,0-.31-1.38,8.58,8.58,0,0,0-.39-1,3.59,3.59,0,0,0-.17-.34c-.07-.13-.12-.28-.19-.4S87.43,5.74,87.46,5.76Zm1.72.09A1.11,1.11,0,0,1,88.88,7a.81.81,0,0,1-.29.12c.06.12.12.25.17.37a6.12,6.12,0,0,1-1.67,6.79,6.4,6.4,0,0,1-4.71,1.54,12.29,12.29,0,0,1-.33,4.4,6.2,6.2,0,0,1-1.5,2.48l.29.23a13,13,0,0,1,1.53,1.43,17.38,17.38,0,0,1,3.71,6.24,5.34,5.34,0,0,1,.22,3.67,1.35,1.35,0,0,1,.28.51,1.13,1.13,0,0,1-.3,1.22.85.85,0,0,1-.87.16.8.8,0,0,1-.45.35c-.51.14-.82-.26-.95-.69a1.63,1.63,0,0,1-.53-.12c0,.57-.08,1.15-.16,1.71-.13,1-.32,2-.53,2.91-.08.37-.17.73-.26,1.09,0,.1,0,.2-.08.3s-.06.26-.09.39l-.71.1h-.06a.88.88,0,0,1-.13.47,1.05,1.05,0,0,1-.82.43,1.37,1.37,0,0,1-.75-.08,1.94,1.94,0,0,1-.83.1,1.48,1.48,0,0,1-.67-.22l-.09-.06a.27.27,0,0,1-.12.06,1.35,1.35,0,0,1-1.28-.31,1.49,1.49,0,0,1-.14-1.22,1.17,1.17,0,0,1,.09-.24l-.09-.34c0-.15-.09-.34-.12-.52-.77.13-1.57.18-2.35.24s-1.67.1-2.5.09a12.06,12.06,0,0,1-1.7-.14v.07a7,7,0,0,1-.3,1.15,4.17,4.17,0,0,1-.29.65l-.33.06-.3.06-.21,0a.82.82,0,0,1-.09.19,1.05,1.05,0,0,1-.82.43A1.37,1.37,0,0,1,67,43a1.94,1.94,0,0,1-.83.1,1.48,1.48,0,0,1-.67-.22l-.09-.06a.27.27,0,0,1-.12.06A1.35,1.35,0,0,1,64,42.59a1.49,1.49,0,0,1-.14-1.22,1.43,1.43,0,0,1,.38-.62,18,18,0,0,1-.68-1.91,17.2,17.2,0,0,1-.62-3.1,1.86,1.86,0,0,1-.41.08c-.13.43-.45.83-.95.69a.86.86,0,0,1-.46-.35.85.85,0,0,1-.87-.16,1.13,1.13,0,0,1-.3-1.22,1.35,1.35,0,0,1,.28-.51,5.35,5.35,0,0,1,.23-3.67,17.35,17.35,0,0,1,3.7-6.24q.3-.33.63-.63l-.27-.19a6.35,6.35,0,0,1-1.9-2.45,10.41,10.41,0,0,1-.32-6.48c0-.15.07-.3.1-.45l-.48,0a5.74,5.74,0,0,1-1.58-.35,5.89,5.89,0,0,1-3.66-4.07,6.24,6.24,0,0,1,0-2.72,5.08,5.08,0,0,1,.52-1.44.79.79,0,0,1-.39-.26,1.15,1.15,0,0,1-.05-1.12,4.56,4.56,0,0,1,1.47-1.81,4.66,4.66,0,0,1,3.08-.92.65.65,0,0,1-.06-.23A1.14,1.14,0,0,1,62,.11a2.52,2.52,0,0,1,1.56,0A6.37,6.37,0,0,1,65,.66a6.88,6.88,0,0,1,3.75,6.62c.34,0,.69-.1,1-.12a21.7,21.7,0,0,1,3.42,0c.61,0,1.2.11,1.8.2.28,0,.56.09.83.15a8.43,8.43,0,0,1,.75-2.22,8.93,8.93,0,0,1,4.3-4.21A4.39,4.39,0,0,1,84,.79C84.5,1,85,1.4,84.9,2a1,1,0,0,1-.14.3A7.58,7.58,0,0,1,86,2.59a5.57,5.57,0,0,1,2.13,1.35A3.92,3.92,0,0,1,89.18,5.85ZM86,35.56a.62.62,0,0,0,.13-.54.88.88,0,0,0-.37-.58.43.43,0,0,0-.41,0,1,1,0,0,1,.3.69,2.15,2.15,0,0,1,0,.56A.44.44,0,0,0,86,35.56Zm-.89-.3A.64.64,0,0,0,85,34.9c-.08-.12-.23-.13-.36-.17l-.05,0a1.17,1.17,0,0,0-.15.72c0,.15.11.62.36.55S85.08,35.47,85.09,35.26ZM84.72,12a3.81,3.81,0,0,0-.85-5.9,3.58,3.58,0,0,0-3.19,0,3.52,3.52,0,0,0-1.36,1.4,6.86,6.86,0,0,0-.46,1,6.3,6.3,0,0,1,2.53,2.87A9.71,9.71,0,0,1,82,13.37,4.49,4.49,0,0,0,84.72,12ZM81.05,42.34a.88.88,0,0,0,0-.53,1.24,1.24,0,0,0-.21-.52c-.12-.17-.27-.18-.46-.23a1,1,0,0,0-.29.37A1.46,1.46,0,0,0,80,42a.72.72,0,0,0,.1.43c.12.16.38.11.56.09A.48.48,0,0,0,81.05,42.34Zm-1.56.16a1.34,1.34,0,0,1,0-.35,1.84,1.84,0,0,1,.31-1,.89.89,0,0,0-1.21.54.56.56,0,0,0,.24.77A1.23,1.23,0,0,0,79.49,42.5ZM78.24,41a.78.78,0,0,0-1,.62c0,.18-.06.53.1.67s.37.1.57.09a1.37,1.37,0,0,1,0-.78A1.5,1.5,0,0,1,78.24,41ZM68.16,42.34a.88.88,0,0,0,0-.53,1.24,1.24,0,0,0-.21-.52c-.12-.17-.27-.18-.46-.23a1,1,0,0,0-.29.37,1.46,1.46,0,0,0-.09.59.72.72,0,0,0,.1.43c.12.16.38.11.56.09A.48.48,0,0,0,68.16,42.34Zm-1.56.16a1.34,1.34,0,0,1,0-.35,1.84,1.84,0,0,1,.31-1,.89.89,0,0,0-1.21.54.56.56,0,0,0,.24.77A1.23,1.23,0,0,0,66.6,42.5ZM66,8.33c0-.11,0-.22,0-.33a5,5,0,0,0-.22-1.09,3.66,3.66,0,0,0-1-1.63,3.06,3.06,0,0,0-3.23-.62,3.46,3.46,0,0,0-1.9,3,4.76,4.76,0,0,0,1.24,3.55,3.49,3.49,0,0,0,1.65,1,5.3,5.3,0,0,0,.55.1,9.84,9.84,0,0,1,1.57-2.7A6.93,6.93,0,0,1,66,8.33Zm-.12,15.91-.49-.2-.32.33A17.89,17.89,0,0,0,63,26.92a16.73,16.73,0,0,0-1.51,2.87,13,13,0,0,0-.55,1.59,5.16,5.16,0,0,0-.25,1.83,2.92,2.92,0,0,0,.15.7H61a.65.65,0,0,1,.59.37.44.44,0,0,1,.38.07c.36,0,.58.43.66.81a.91.91,0,0,0,.31-.09,17.28,17.28,0,0,1,1.49-8.23A13.51,13.51,0,0,1,65.85,24.24ZM65.35,41a.78.78,0,0,0-1,.62c0,.18-.06.53.1.67s.37.1.57.09a1.37,1.37,0,0,1,0-.78A1.5,1.5,0,0,1,65.35,41Zm-3.26-5.56a1,1,0,0,0-.15-.72l0,0c-.13,0-.28.05-.37.17a.63.63,0,0,0-.07.36c0,.21,0,.65.27.72S62.08,35.58,62.09,35.43Zm-.87-1a.43.43,0,0,0-.41,0,.85.85,0,0,0-.37.58.59.59,0,0,0,.12.54.46.46,0,0,0,.39.13,2.15,2.15,0,0,1,0-.56A1,1,0,0,1,61.22,34.44Z"/><path d="M73,18.14a5.11,5.11,0,0,1,.09,1.1,1.58,1.58,0,0,1-1,1.35,5.36,5.36,0,0,1-1.9.34,3.23,3.23,0,0,1-2-.52,2.14,2.14,0,0,1-.84-1.63,7,7,0,0,1,.2-2,2.81,2.81,0,0,1,1-1.65A1.61,1.61,0,0,1,70,14.8a2.5,2.5,0,0,1,1.77.28,2.56,2.56,0,0,1,1,1.81C72.83,17.31,72.91,17.72,73,18.14ZM71.92,20a1.09,1.09,0,0,0,.51-1.2l0-.29a2.1,2.1,0,0,0-.26.13,1.68,1.68,0,0,0-.46.46,1.87,1.87,0,0,0-.25.73c0,.09,0,.23,0,.35A1.9,1.9,0,0,0,71.92,20Zm.42-1.87c-.06-.4-.14-.8-.23-1.19a1.87,1.87,0,0,0-.81-1.39,3.58,3.58,0,0,0-1.92-.25,2,2,0,0,0-.77.55A3.29,3.29,0,0,0,68,17.58c0,.27-.06.55-.07.83a1,1,0,0,1,.8.61,1.73,1.73,0,0,1,.12,1.08l.08,0a3.55,3.55,0,0,0,1.62.13l.58-.06a1.56,1.56,0,0,1,0-.47,1.91,1.91,0,0,1,.24-.81,2,2,0,0,1,.56-.6A2.4,2.4,0,0,1,72.34,18.09Zm-3.76,1.84a3.49,3.49,0,0,0,0-.65.88.88,0,0,0-.57-.6,3.32,3.32,0,0,0,.06.44A1.43,1.43,0,0,0,68.58,19.93Z"/><path d="M72.09,21.65c.11,0,.19.1.09.18a3.22,3.22,0,0,1-1.82.49,3.92,3.92,0,0,1-1-.15c-.25-.08-.62-.15-.75-.4,0,0,0,0,0,0a1.78,1.78,0,0,1,.72.11,4.17,4.17,0,0,0,.93.07,5.11,5.11,0,0,0,1-.07C71.55,21.81,71.81,21.71,72.09,21.65Z"/><path class="cls-4" d="M64.39,41.61c0,.18-.06.53.1.67s.37.1.57.09a1.37,1.37,0,0,1,0-.78,1.5,1.5,0,0,1,.31-.6A.78.78,0,0,0,64.39,41.61Z"/><path class="cls-5" d="M64.7,5.28a3.06,3.06,0,0,0-3.23-.62,3.46,3.46,0,0,0-1.9,3,4.76,4.76,0,0,0,1.24,3.55,3.49,3.49,0,0,0,1.65,1,5.3,5.3,0,0,0,.55.1,9.84,9.84,0,0,1,1.57-2.7A6.93,6.93,0,0,1,66,8.33c0-.11,0-.22,0-.33a5,5,0,0,0-.22-1.09A3.66,3.66,0,0,0,64.7,5.28Z"/><path class="cls-4" d="M65.65,41.67a.56.56,0,0,0,.24.77,1.23,1.23,0,0,0,.71.06,1.34,1.34,0,0,1,0-.35,1.84,1.84,0,0,1,.31-1A.89.89,0,0,0,65.65,41.67Z"/><path class="cls-2" d="M62.06,12.66A4.1,4.1,0,0,1,60,11.25a5.35,5.35,0,0,1-1-4.32A3.7,3.7,0,0,1,65.53,5.1a4.59,4.59,0,0,1,1,1.9,6.67,6.67,0,0,1,.17.93l.09,0A6.63,6.63,0,0,1,68,7.43a6.36,6.36,0,0,0-.16-2.21,6.26,6.26,0,0,0-2.5-3.56,6.34,6.34,0,0,0-2-.93,1.68,1.68,0,0,0-1.19,0,.62.62,0,0,0-.34.43.48.48,0,0,0,.25.44,3.29,3.29,0,0,1,1,.47s0,.11,0,.1a5.59,5.59,0,0,0-3.86.38A4.5,4.5,0,0,0,57.85,3.6a3.43,3.43,0,0,0-.47.72,1,1,0,0,0-.13.47.46.46,0,0,0,.21.35,3.25,3.25,0,0,1,1-.94c.08,0,.21,0,.16.12a8.72,8.72,0,0,0-1.32,3.07,5.21,5.21,0,0,0,1.28,4.45,5.63,5.63,0,0,0,2,1.35,6.73,6.73,0,0,0,2,.44h.07c.08-.28.16-.56.26-.84A3.1,3.1,0,0,1,62.06,12.66Z"/><path class="cls-4" d="M71.36,18.92a2,2,0,0,1,.56-.6,2.4,2.4,0,0,1,.42-.23c-.06-.4-.14-.8-.23-1.19a1.87,1.87,0,0,0-.81-1.39,3.58,3.58,0,0,0-1.92-.25,2,2,0,0,0-.77.55A3.37,3.37,0,0,0,68,17.58c0,.27-.06.55-.07.83a1,1,0,0,1,.8.61,1.72,1.72,0,0,1,.12,1.08l.08,0a3.56,3.56,0,0,0,1.62.13l.58-.06a1.56,1.56,0,0,1,0-.47A1.91,1.91,0,0,1,71.36,18.92Z"/><path class="cls-6" d="M72.4,18.47a2.1,2.1,0,0,0-.26.13,1.52,1.52,0,0,0-.45.46,1.73,1.73,0,0,0-.26.73c0,.09,0,.23,0,.35a1.9,1.9,0,0,0,.49-.18,1.09,1.09,0,0,0,.51-1.2Z"/><path class="cls-5" d="M84.72,12a3.81,3.81,0,0,0-.85-5.9,3.58,3.58,0,0,0-3.19,0,3.52,3.52,0,0,0-1.36,1.4,6.86,6.86,0,0,0-.46,1,6.3,6.3,0,0,1,2.53,2.87A9.71,9.71,0,0,1,82,13.37,4.49,4.49,0,0,0,84.72,12Z"/><path class="cls-6" d="M68,18.68a2.24,2.24,0,0,0,.07.44,1.37,1.37,0,0,0,.55.81,3.49,3.49,0,0,0,0-.65A.88.88,0,0,0,68,18.68Z"/><path class="cls-4" d="M80.8,41.29c-.12-.17-.27-.18-.46-.23a1,1,0,0,0-.29.37A1.46,1.46,0,0,0,80,42a.72.72,0,0,0,.1.43c.12.16.38.11.56.09a.48.48,0,0,0,.43-.2.88.88,0,0,0,0-.53A1.24,1.24,0,0,0,80.8,41.29Z"/><path class="cls-4" d="M78.54,41.67a.56.56,0,0,0,.24.77,1.23,1.23,0,0,0,.71.06,1.34,1.34,0,0,1,0-.35,1.84,1.84,0,0,1,.31-1A.89.89,0,0,0,78.54,41.67Z"/><path class="cls-4" d="M67.91,41.29c-.12-.17-.27-.18-.46-.23a1,1,0,0,0-.29.37,1.46,1.46,0,0,0-.09.59.72.72,0,0,0,.1.43c.12.16.38.11.56.09a.48.48,0,0,0,.43-.2.88.88,0,0,0,0-.53A1.24,1.24,0,0,0,67.91,41.29Z"/><path class="cls-4" d="M77.28,41.61c0,.18-.06.53.1.67s.37.1.57.09a1.37,1.37,0,0,1,0-.78,1.5,1.5,0,0,1,.31-.6A.78.78,0,0,0,77.28,41.61Z"/><path class="cls-4" d="M85.74,34.44a.43.43,0,0,0-.41,0,1,1,0,0,1,.3.69,2.15,2.15,0,0,1,0,.56.44.44,0,0,0,.39-.13.62.62,0,0,0,.13-.54A.88.88,0,0,0,85.74,34.44Z"/><path class="cls-4" d="M84.65,34.73l-.05,0a1.17,1.17,0,0,0-.15.72c0,.15.11.62.36.55s.27-.51.28-.72A.64.64,0,0,0,85,34.9C84.93,34.78,84.78,34.77,84.65,34.73Z"/><path d="M72.73,16.89a2.56,2.56,0,0,0-1-1.81A2.5,2.5,0,0,0,70,14.8a1.61,1.61,0,0,0-1.36.29,2.81,2.81,0,0,0-1,1.65,7,7,0,0,0-.2,2,2.14,2.14,0,0,0,.84,1.63,3.21,3.21,0,0,0,2,.52,5.36,5.36,0,0,0,1.9-.34,1.58,1.58,0,0,0,1-1.35,5.06,5.06,0,0,0-.09-1.1C72.91,17.72,72.83,17.31,72.73,16.89ZM68,19.12a2.24,2.24,0,0,1-.07-.44.88.88,0,0,1,.57.6,3.49,3.49,0,0,1,0,.65A1.37,1.37,0,0,1,68,19.12Zm3.12,1.08-.58.06A3.56,3.56,0,0,1,69,20.13l-.08,0A1.72,1.72,0,0,0,68.75,19a1,1,0,0,0-.8-.61c0-.28,0-.56.07-.83a3.37,3.37,0,0,1,.59-1.77,2,2,0,0,1,.77-.55,3.58,3.58,0,0,1,1.92.25,1.87,1.87,0,0,1,.81,1.39c.09.39.17.79.23,1.19a2.4,2.4,0,0,0-.42.23,2,2,0,0,0-.56.6,1.91,1.91,0,0,0-.24.81A1.56,1.56,0,0,0,71.15,20.2Zm.77-.24a1.9,1.9,0,0,1-.49.18c0-.12,0-.26,0-.35a1.73,1.73,0,0,1,.26-.73,1.52,1.52,0,0,1,.45-.46,2.1,2.1,0,0,1,.26-.13l0,.29A1.09,1.09,0,0,1,71.92,20Z"/><path class="cls-5" d="M77.14,24.64a4.47,4.47,0,0,1-2,.27s0-.05,0-.06l.12-.06a23.84,23.84,0,0,1-7.7-.3,4.68,4.68,0,0,1-1.18-.12,24.12,24.12,0,0,0-1.54,3,17.26,17.26,0,0,0-1.23,7.75q.07.91.24,1.83a13.29,13.29,0,0,0,3,2.14.06.06,0,0,1,.09,0,8.4,8.4,0,0,0,3,.8,20.57,20.57,0,0,0,3.33,0c1-.06,2-.13,3-.26a5.44,5.44,0,0,0,2.79-1,.09.09,0,0,1,.13,0C82.4,35,78.63,26.9,77.14,24.64Z"/><path class="cls-7" d="M66,8a5,5,0,0,0-.22-1.09,3.66,3.66,0,0,0-1-1.63,1.3,1.3,0,0,0-.23-.18A2.86,2.86,0,0,1,65,7.46c-.19.87-1,1.44-1.44,2.26a25.79,25.79,0,0,0-1.08,2.46h0a5.3,5.3,0,0,0,.55.1,9.84,9.84,0,0,1,1.57-2.7A6.93,6.93,0,0,1,66,8.33C66,8.22,66,8.11,66,8Z"/><path class="cls-8" d="M61.78,13.54a6,6,0,0,0,.71.09h.07c.08-.28.16-.56.26-.84a3.52,3.52,0,0,1-.65-.1,4.05,4.05,0,0,1-.6.81Z"/><path class="cls-8" d="M66.53,7.11a6.67,6.67,0,0,1,.14.82l.09,0A6.63,6.63,0,0,1,68,7.43a5.4,5.4,0,0,0,0-.8C67.53,6.53,67,6.92,66.53,7.11Z"/><path class="cls-7" d="M80.18,8.28a1.74,1.74,0,0,1,.42-2.11,3.54,3.54,0,0,0-1.28,1.35,6.86,6.86,0,0,0-.46,1,6.3,6.3,0,0,1,2.53,2.87A9.71,9.71,0,0,1,82,13.37,4.6,4.6,0,0,0,83.31,13a1.39,1.39,0,0,1-.15-.19C82,11.34,81.29,9.86,80.18,8.28Z"/><path class="cls-8" d="M76.45,23.42A32.83,32.83,0,0,1,73,25.05a9.17,9.17,0,0,0,2.28-.12l-.18,0s0-.05,0-.06c.75-.4,1.63-.49,2.39-.86a11.06,11.06,0,0,0,2-1.19,5.8,5.8,0,0,0,2.08-3.16,13.3,13.3,0,0,0,.13-4.13c0-.21,0-.43-.07-.65A10.7,10.7,0,0,1,76.45,23.42Z"/><path class="cls-8" d="M67.49,40.43a.6.6,0,0,1-.1.23.71.71,0,0,1,.81.19,1.73,1.73,0,0,1,.44.91l0,.12.45-.08h0l.12-.33c.07-.21.13-.42.18-.64s0-.23.07-.35a.3.3,0,0,1,0-.1v0a6.72,6.72,0,0,1-2.07-.77A1.42,1.42,0,0,1,67.49,40.43Z"/><path class="cls-8" d="M81.57,40c-.76.53-1.67.24-2.54.19-.69,0-.51-.38-.33-.82a3.6,3.6,0,0,1-1.49.83c.05.14.09.3.13.43v0a1.08,1.08,0,0,1,.29-.13.93.93,0,0,1,.91.23,1.4,1.4,0,0,1,.3-.15,1,1,0,0,1,1.19.3l.15-.08a.19.19,0,0,1,.08-.1.7.7,0,0,1,.83.18,1.58,1.58,0,0,1,.4.74l.33-.05a.19.19,0,0,0,0-.07c.13-.51.25-1,.38-1.55.07-.29.13-.59.2-.88A2.31,2.31,0,0,1,81.57,40Z"/><path class="cls-8" d="M83.68,32.28a13.32,13.32,0,0,0-1.39-2.68,8,8,0,0,1,.89,2.29A13.58,13.58,0,0,1,83.5,35l.07,0a1.42,1.42,0,0,0,.4.12c.07-.38.29-.76.65-.81a.46.46,0,0,1,.39-.07.62.62,0,0,1,.58-.37h.13a2.92,2.92,0,0,0,.15-.7c0-.13,0-.26,0-.38a.89.89,0,0,1-.23.13A1.38,1.38,0,0,1,83.68,32.28Z"/><path class="cls-8" d="M69.45,24.62a8.49,8.49,0,0,1-6.78-6.07,7.15,7.15,0,0,0,.68,2.53,6.22,6.22,0,0,0,1.56,2,5,5,0,0,0,2.76,1.31,0,0,0,1,1,0,.09h0a7.18,7.18,0,0,0,2.45.42A6.45,6.45,0,0,0,69.45,24.62Z"/><path class="cls-8" d="M83.91,13.5a5.28,5.28,0,0,1-1.74.55,10.58,10.58,0,0,1,.15,1.13,5.6,5.6,0,0,0,2.47-.31,5.78,5.78,0,0,0,3-2.48C86.75,13.49,85.13,14.17,83.91,13.5Z"/><path class="cls-7" d="M77,38.85a23.34,23.34,0,0,1-12.33-1.16,12.49,12.49,0,0,0,2.14,1.39.06.06,0,0,1,.09,0,8.4,8.4,0,0,0,3,.8,20.57,20.57,0,0,0,3.33,0c1-.06,2-.13,3-.26a5.44,5.44,0,0,0,2.79-1,.09.09,0,0,1,.13,0,4.72,4.72,0,0,0,.51-.69A8.27,8.27,0,0,1,77,38.85Z"/><path class="cls-7" d="M75.28,24.93l-.18,0s0-.05,0-.06l.12-.06q-1,.12-2,.15A24,24,0,0,1,70,24.86c-.81-.07-1.5-.18-2-.28l-.42-.09a4.8,4.8,0,0,1-1.14-.11c3,2.51,7.51,2.23,11,.69l-.27-.43A4.77,4.77,0,0,1,75.28,24.93Z"/><path class="cls-8" d="M79.81,23.35l-.11.08a7.46,7.46,0,0,1-2.18,1.1l-.38.11.27.43c.33-.14.65-.29,1-.45A5,5,0,0,0,79.81,23.35Z"/><path class="cls-7" d="M71.37,30.49c-.12.29-.23.71-.58.78a.37.37,0,0,1-.44-.27,2.15,2.15,0,0,1-.07-.67,2.27,2.27,0,0,1,.07-.62.61.61,0,0,1,.05-.12h0c.14-.25-.26-.53-.43-.28,0,.07-.09.16-.15.23s-.11.07-.14,0a1.34,1.34,0,0,1,0-.63,2.09,2.09,0,0,1,.46-1s0-.09-.06-.06a2,2,0,0,0-.9,1.75.63.63,0,0,0,.52.62h.09a2.91,2.91,0,0,0,0,.59,1.18,1.18,0,0,0,.38.85.72.72,0,0,0,.92-.13,1.62,1.62,0,0,0,.44-.94A.08.08,0,0,0,71.37,30.49Z"/><path class="cls-7" d="M76,33.65a.11.11,0,0,0-.2,0c-.12.21-.25.1-.33,0a.48.48,0,0,1-.07-.35,1.32,1.32,0,0,1,.11-.4,1.91,1.91,0,0,1,.39-.58s0-.08,0-.06A1.29,1.29,0,0,0,75,33.77a.59.59,0,0,0,.68.4A.43.43,0,0,0,76,33.65Z"/><path class="cls-7" d="M76.65,34.28c-.12,0-.25,0-.36,0a.43.43,0,0,1-.22-.33,1.92,1.92,0,0,1,.05-.79s0,0,0,0a1.52,1.52,0,0,0-.39.64.9.9,0,0,0,.12.7c.21.31.88.48,1,0C76.81,34.36,76.72,34.29,76.65,34.28Z"/><path class="cls-7" d="M66,33.42a.34.34,0,0,1-.61-.05,1,1,0,0,1,0-.7c.07-.19.16-.37.24-.54s0-.07-.07-.05c-.48.38-.93,1.06-.51,1.66a.74.74,0,0,0,.67.31.57.57,0,0,0,.54-.55A.16.16,0,0,0,66,33.42Z"/><path class="cls-7" d="M66.52,34c-.31-.22-.18-.75-.09-1.06a0,0,0,0,0-.07,0,1.21,1.21,0,0,0-.43.83.59.59,0,0,0,.48.7C66.65,34.41,66.69,34.09,66.52,34Z"/><path class="cls-8" d="M80.27,26a1.38,1.38,0,0,0-.38-.42s-.27-.23-.32-.12.07.24.11.34l.15.31a.41.41,0,0,0,.23.27.16.16,0,0,0,.21-.06s0,0,0,0a.12.12,0,0,0,0-.08A.35.35,0,0,0,80.27,26Z"/><path class="cls-8" d="M79.56,26.41c-.07-.07-.16,0-.13.1l.16.34a2.35,2.35,0,0,0,.14.37.1.1,0,0,0,.18,0A1,1,0,0,0,79.56,26.41Z"/><path class="cls-8" d="M80.69,27.5a2.19,2.19,0,0,0-.37-.69.07.07,0,0,0-.13.06,2.34,2.34,0,0,0,.3.71C80.55,27.68,80.73,27.62,80.69,27.5Z"/><path class="cls-8" d="M82.5,35.34a2,2,0,0,0-.13-.73c0-.07-.15-.09-.16,0,0,.27,0,.55,0,.82a4.78,4.78,0,0,0-.08.76.13.13,0,0,0,.23.05A1.84,1.84,0,0,0,82.5,35.34Z"/><path class="cls-8" d="M82.29,36.93a.2.2,0,0,0,0-.08h0a0,0,0,0,0-.07,0l-.06,0a.21.21,0,0,0,0,.06.77.77,0,0,0-.07.16.88.88,0,0,0-.07.33.13.13,0,0,0,.23.07A1.06,1.06,0,0,0,82.29,36.93Z"/><path class="cls-8" d="M81.81,35.56s-.08,0-.09,0a2.45,2.45,0,0,0-.08.37,1.93,1.93,0,0,0-.06.42c0,.1.11.12.17,0A.84.84,0,0,0,81.81,35.56Z"/><path class="cls-8" d="M80.14,11.47a1.74,1.74,0,0,0-.67-1.19c-.09-.06-.19.06-.16.14a4.73,4.73,0,0,0,.28.55c.1.19.18.39.26.58A.15.15,0,0,0,80.14,11.47Z"/><path class="cls-8" d="M80.43,12.52a1.48,1.48,0,0,0-.13-.35c0-.07-.15,0-.15,0a1.66,1.66,0,0,0,.13.69c.06.11.21,0,.21-.08A.8.8,0,0,0,80.43,12.52Z"/><path class="cls-8" d="M79.44,11.19a.09.09,0,0,0-.16.08c.06.34.15.66.2,1,0,.15.26.16.26,0A1.67,1.67,0,0,0,79.44,11.19Z"/><path class="cls-8" d="M65,10.89s-.06-.07-.1-.05a.34.34,0,0,0-.18.19.94.94,0,0,0-.15.28.13.13,0,0,0,.06.16.12.12,0,0,0,.17,0,1.19,1.19,0,0,0,.13-.25A.46.46,0,0,0,65,10.89Z"/><path class="cls-8" d="M65.67,9.92a1,1,0,0,0-.22.25,1.11,1.11,0,0,0-.09.19.25.25,0,0,0,0,.12s0,0,.06,0a.65.65,0,0,0,.26-.17,1.58,1.58,0,0,0,.22-.29C66,9.93,65.77,9.81,65.67,9.92Z"/><path class="cls-3" d="M69.48,15.49a1.47,1.47,0,0,0-1.14,1.61.06.06,0,0,0,.11,0,3.89,3.89,0,0,1,1-1.6S69.5,15.48,69.48,15.49Z"/><path class="cls-3" d="M68.35,17.21h0Z"/><path class="cls-3" d="M68.38,17.5s0-.05,0-.06,0,0,0,0l-.07.09v.06a.22.22,0,0,0,0,.08s0,.09.07.09a.08.08,0,0,0,.1-.07A1.21,1.21,0,0,0,68.38,17.5Z"/></g></g></svg>